simulate all controllers
version=1
nRows=4
nColumns=195
inDegrees=yes
endheader
time	/jointset/ground_platform/platform_rx/value	/jointset/ground_platform/platform_rx/speed	/jointset/ground_platform/platform_ry/value	/jointset/ground_platform/platform_ry/speed	/jointset/ground_platform/platform_rz/value	/jointset/ground_platform/platform_rz/speed	/jointset/ground_platform/platform_ty/value	/jointset/ground_platform/platform_ty/speed	/jointset/ground_pelvis/pelvis_tilt/value	/jointset/ground_pelvis/pelvis_tilt/speed	/jointset/ground_pelvis/pelvis_list/value	/jointset/ground_pelvis/pelvis_list/speed	/jointset/ground_pelvis/pelvis_rotation/value	/jointset/ground_pelvis/pelvis_rotation/speed	/jointset/ground_pelvis/pelvis_tx/value	/jointset/ground_pelvis/pelvis_tx/speed	/jointset/ground_pelvis/pelvis_ty/value	/jointset/ground_pelvis/pelvis_ty/speed	/jointset/ground_pelvis/pelvis_tz/value	/jointset/ground_pelvis/pelvis_tz/speed	/jointset/hip_r/hip_flexion_r/value	/jointset/hip_r/hip_flexion_r/speed	/jointset/hip_r/hip_adduction_r/value	/jointset/hip_r/hip_adduction_r/speed	/jointset/hip_r/hip_rotation_r/value	/jointset/hip_r/hip_rotation_r/speed	/jointset/knee_r/knee_angle_r/value	/jointset/knee_r/knee_angle_r/speed	/jointset/ankle_r/ankle_angle_r/value	/jointset/ankle_r/ankle_angle_r/speed	/jointset/subtalar_r/subtalar_angle_r/value	/jointset/subtalar_r/subtalar_angle_r/speed	/jointset/mtp_r/mtp_angle_r/value	/jointset/mtp_r/mtp_angle_r/speed	/jointset/hip_l/hip_flexion_l/value	/jointset/hip_l/hip_flexion_l/speed	/jointset/hip_l/hip_adduction_l/value	/jointset/hip_l/hip_adduction_l/speed	/jointset/hip_l/hip_rotation_l/value	/jointset/hip_l/hip_rotation_l/speed	/jointset/knee_l/knee_angle_l/value	/jointset/knee_l/knee_angle_l/speed	/jointset/ankle_l/ankle_angle_l/value	/jointset/ankle_l/ankle_angle_l/speed	/jointset/subtalar_l/subtalar_angle_l/value	/jointset/subtalar_l/subtalar_angle_l/speed	/jointset/mtp_l/mtp_angle_l/value	/jointset/mtp_l/mtp_angle_l/speed	/jointset/back/lumbar_extension/value	/jointset/back/lumbar_extension/speed	/jointset/back/lumbar_bending/value	/jointset/back/lumbar_bending/speed	/jointset/back/lumbar_rotation/value	/jointset/back/lumbar_rotation/speed	/forceset/glut_med1_r/activation	/forceset/glut_med1_r/fiber_length	/forceset/glut_med2_r/activation	/forceset/glut_med2_r/fiber_length	/forceset/glut_med3_r/activation	/forceset/glut_med3_r/fiber_length	/forceset/bifemlh_r/activation	/forceset/bifemlh_r/fiber_length	/forceset/bifemsh_r/activation	/forceset/bifemsh_r/fiber_length	/forceset/sar_r/activation	/forceset/sar_r/fiber_length	/forceset/add_mag2_r/activation	/forceset/add_mag2_r/fiber_length	/forceset/tfl_r/activation	/forceset/tfl_r/fiber_length	/forceset/pect_r/activation	/forceset/pect_r/fiber_length	/forceset/grac_r/activation	/forceset/grac_r/fiber_length	/forceset/glut_max1_r/activation	/forceset/glut_max1_r/fiber_length	/forceset/glut_max2_r/activation	/forceset/glut_max2_r/fiber_length	/forceset/glut_max3_r/activation	/forceset/glut_max3_r/fiber_length	/forceset/iliacus_r/activation	/forceset/iliacus_r/fiber_length	/forceset/psoas_r/activation	/forceset/psoas_r/fiber_length	/forceset/quad_fem_r/activation	/forceset/quad_fem_r/fiber_length	/forceset/gem_r/activation	/forceset/gem_r/fiber_length	/forceset/peri_r/activation	/forceset/peri_r/fiber_length	/forceset/rect_fem_r/activation	/forceset/rect_fem_r/fiber_length	/forceset/vas_int_r/activation	/forceset/vas_int_r/fiber_length	/forceset/med_gas_r/activation	/forceset/med_gas_r/fiber_length	/forceset/lat_gas_r/activation	/forceset/lat_gas_r/fiber_length	/forceset/soleus_r/activation	/forceset/soleus_r/fiber_length	/forceset/tib_post_r/activation	/forceset/tib_post_r/fiber_length	/forceset/flex_dig_r/activation	/forceset/flex_dig_r/fiber_length	/forceset/flex_hal_r/activation	/forceset/flex_hal_r/fiber_length	/forceset/tib_ant_r/activation	/forceset/tib_ant_r/fiber_length	/forceset/per_brev_r/activation	/forceset/per_brev_r/fiber_length	/forceset/per_long_r/activation	/forceset/per_long_r/fiber_length	/forceset/per_tert_r/activation	/forceset/per_tert_r/fiber_length	/forceset/ext_dig_r/activation	/forceset/ext_dig_r/fiber_length	/forceset/ext_hal_r/activation	/forceset/ext_hal_r/fiber_length	/forceset/glut_med1_l/activation	/forceset/glut_med1_l/fiber_length	/forceset/glut_med2_l/activation	/forceset/glut_med2_l/fiber_length	/forceset/glut_med3_l/activation	/forceset/glut_med3_l/fiber_length	/forceset/bifemlh_l/activation	/forceset/bifemlh_l/fiber_length	/forceset/bifemsh_l/activation	/forceset/bifemsh_l/fiber_length	/forceset/sar_l/activation	/forceset/sar_l/fiber_length	/forceset/add_mag2_l/activation	/forceset/add_mag2_l/fiber_length	/forceset/tfl_l/activation	/forceset/tfl_l/fiber_length	/forceset/pect_l/activation	/forceset/pect_l/fiber_length	/forceset/grac_l/activation	/forceset/grac_l/fiber_length	/forceset/glut_max1_l/activation	/forceset/glut_max1_l/fiber_length	/forceset/glut_max2_l/activation	/forceset/glut_max2_l/fiber_length	/forceset/glut_max3_l/activation	/forceset/glut_max3_l/fiber_length	/forceset/iliacus_l/activation	/forceset/iliacus_l/fiber_length	/forceset/psoas_l/activation	/forceset/psoas_l/fiber_length	/forceset/quad_fem_l/activation	/forceset/quad_fem_l/fiber_length	/forceset/gem_l/activation	/forceset/gem_l/fiber_length	/forceset/peri_l/activation	/forceset/peri_l/fiber_length	/forceset/rect_fem_l/activation	/forceset/rect_fem_l/fiber_length	/forceset/vas_int_l/activation	/forceset/vas_int_l/fiber_length	/forceset/med_gas_l/activation	/forceset/med_gas_l/fiber_length	/forceset/lat_gas_l/activation	/forceset/lat_gas_l/fiber_length	/forceset/soleus_l/activation	/forceset/soleus_l/fiber_length	/forceset/tib_post_l/activation	/forceset/tib_post_l/fiber_length	/forceset/flex_dig_l/activation	/forceset/flex_dig_l/fiber_length	/forceset/flex_hal_l/activation	/forceset/flex_hal_l/fiber_length	/forceset/tib_ant_l/activation	/forceset/tib_ant_l/fiber_length	/forceset/per_brev_l/activation	/forceset/per_brev_l/fiber_length	/forceset/per_long_l/activation	/forceset/per_long_l/fiber_length	/forceset/per_tert_l/activation	/forceset/per_tert_l/fiber_length	/forceset/ext_dig_l/activation	/forceset/ext_dig_l/fiber_length	/forceset/ext_hal_l/activation	/forceset/ext_hal_l/fiber_length	/forceset/ercspn_r/activation	/forceset/ercspn_r/fiber_length	/forceset/ercspn_l/activation	/forceset/ercspn_l/fiber_length	/forceset/intobl_r/activation	/forceset/intobl_r/fiber_length	/forceset/intobl_l/activation	/forceset/intobl_l/fiber_length	/forceset/extobl_r/activation	/forceset/extobl_r/fiber_length	/forceset/extobl_l/activation	/forceset/extobl_l/fiber_length
      0.36463296	     20.00000000	      0.00000000	     -0.00000000	      0.00000000	      0.00000000	      0.00000000	      0.25000000	      0.00000000	     -4.84067483	    183.29053953	     -7.02001688	   -157.84793823	     -3.38823111	    -22.77588376	      0.04124332	     -0.17900607	      1.06699651	     -1.83948820	     -0.00361102	     -0.15901233	     26.81436519	    -55.54153488	      2.65824354	     88.79407171	     -4.60136907	    -84.37326805	    -51.43152663	   -317.36894781	     31.35704143	    586.00008578	     16.67431329	    260.47515568	     -0.00000000	     -0.00000000	    -19.99999998	      0.00000000	     10.00000028	      0.00000000	      4.99999985	      0.00000000	   -119.99999986	     -0.00000000	     11.49999977	     -0.00000000	     -0.03000064	      0.00000000	      0.00000000	     -0.00000000	    -10.93584692	   -282.76697501	      8.33805768	    160.95657921	      5.96665134	     74.06265679	      0.31141460	      0.05136360	      0.25081381	      0.08933017	      0.31214594	      0.07085397	     -0.02148457	      0.09239914	     -0.01973616	      0.14802599	     -0.01550298	      0.43606114	      0.08804103	      0.08154684	      0.10921581	      0.09906897	     -0.00007226	      0.05840752	     -0.02098404	      0.29046730	      0.21082642	      0.09413346	      0.21698830	      0.10426593	      0.23706209	      0.11937850	      0.01238910	      0.08918567	      0.01189833	      0.08350960	     -0.02150438	      0.04367221	     -0.02136693	      0.02326533	      0.35770689	      0.02361806	      0.33548393	      0.11461138	      0.48410691	      0.10257508	      0.13694974	      0.09359918	      0.17122902	      0.06656032	      0.27429282	      0.09335929	      0.24032104	      0.03270571	      0.21655312	      0.02859690	      0.26871053	      0.03807526	      0.20843023	      0.05465677	      0.92348174	      0.05307145	      0.95070932	      0.04826362	      0.61477980	      0.06747472	      0.60813636	      0.07355414	      0.21175605	      0.08118597	     -0.02150438	      0.04646954	     -0.02150438	      0.07924345	     -0.02150438	      0.06066849	     -0.02150438	      0.02207317	     -0.02150438	      0.12238178	     -0.02150438	      0.45556126	     -0.02150438	      0.05828642	     -0.02150438	      0.13391495	     -0.02150438	      0.07307389	     -0.02150438	      0.24301553	     -0.02150438	      0.06638073	     -0.02150438	      0.06554424	     -0.02150438	      0.05770037	     -0.02150438	      0.11895704	     -0.02150438	      0.11276383	     -0.02150438	      0.04385542	     -0.02150438	      0.02477863	     -0.02150438	      0.02332647	     -0.02150438	      0.18252185	     -0.02150438	      0.13945923	     -0.02150438	      0.06773760	     -0.02150438	      0.04190384	     -0.02150438	      0.08593352	     -0.02150438	      0.03561976	     -0.02150438	      0.03422833	     -0.02150438	      0.04262422	     -0.02150438	      0.07211219	     -0.02150438	      0.05030461	     -0.02150438	      0.05155981	     -0.02150438	      0.07464108	     -0.02150438	      0.08888362	     -0.02150438	      0.09641129	      0.01380866	      0.12020710	      0.22774157	      0.13268752	     -0.02150438	      0.08727045	      0.12635410	      0.09780664	     -0.02150438	      0.11496787	      0.12710895	      0.13162934
      0.36480070	     20.00000000	      0.00000000	     -0.00000000	      0.00000000	      0.00000000	      0.00000000	      0.25000000	      0.00000000	     -4.80989944	    183.65239092	     -7.04645336	   -157.36346665	     -3.39199104	    -22.05798091	      0.04121332	     -0.17862273	      1.06668810	     -1.83781545	     -0.00363774	     -0.15948985	     26.80483657	    -58.04834811	      2.67312288	     88.61346098	     -4.61554219	    -84.65036958	    -51.48446721	   -313.91781927	     31.45560520	    589.06902885	     16.71778679	    257.85920651	     -0.00000000	     -0.00000000	    -19.99999998	     -0.00000000	     10.00000028	      0.00000000	      4.99999985	      0.00000000	   -119.99999986	     -0.00000000	     11.49999977	     -0.00000000	     -0.03000064	      0.00000000	      0.00000000	     -0.00000000	    -10.98330157	   -283.04860886	      8.36499341	    160.20753766	      5.97901706	     73.38048649	      0.31078136	      0.05138138	      0.25008640	      0.08934069	      0.31094613	      0.07085939	     -0.02150617	      0.09235380	     -0.01975776	      0.14795127	     -0.01551575	      0.43606189	      0.08780805	      0.08153587	      0.11085215	      0.09905685	     -0.00009386	      0.05840006	     -0.02100563	      0.29041240	      0.21010650	      0.09413913	      0.21623898	      0.10426890	      0.23621369	      0.11937394	      0.01312305	      0.08914213	      0.01264362	      0.08346612	     -0.02152598	      0.04364973	     -0.02138853	      0.02325684	      0.35618699	      0.02362494	      0.33504926	      0.11466757	      0.48251966	      0.10261857	      0.13920145	      0.09358774	      0.17433118	      0.06654580	      0.27536318	      0.09340145	      0.24200734	      0.03270122	      0.21753218	      0.02859256	      0.27027561	      0.03807320	      0.20840155	      0.05459365	      0.92278861	      0.05309997	      0.95025697	      0.04829478	      0.61469193	      0.06744085	      0.60808832	      0.07351704	      0.21171581	      0.08114190	     -0.02152598	      0.04646954	     -0.02152598	      0.07924345	     -0.02152598	      0.06066849	     -0.02152598	      0.02207317	     -0.02152598	      0.12238178	     -0.02152598	      0.45556126	     -0.02152598	      0.05828642	     -0.02152598	      0.13391495	     -0.02152598	      0.07307389	     -0.02152598	      0.24301553	     -0.02152598	      0.06638073	     -0.02152598	      0.06554424	     -0.02152598	      0.05770037	     -0.02152598	      0.11895704	     -0.02152598	      0.11276383	     -0.02152598	      0.04385542	     -0.02152598	      0.02477863	     -0.02152598	      0.02332647	     -0.02152598	      0.18252185	     -0.02152598	      0.13945923	     -0.02152598	      0.06773760	     -0.02152598	      0.04190384	     -0.02152598	      0.08593352	     -0.02152598	      0.03561976	     -0.02152598	      0.03422835	     -0.02152598	      0.04262424	     -0.02152598	      0.07211219	     -0.02152598	      0.05030461	     -0.02152598	      0.05155981	     -0.02152598	      0.07464108	     -0.02152598	      0.08888362	     -0.02152598	      0.09641129	      0.01443356	      0.12021033	      0.22763717	      0.13273902	     -0.02152598	      0.08722726	      0.12598942	      0.09780838	     -0.02152598	      0.11491604	      0.12674149	      0.13161967
      0.36494427	     20.00000000	      0.00000000	     -0.00000000	      0.00000000	      0.00000000	      0.00000000	      0.25000000	      0.00000000	     -4.78351176	    183.95858320	     -7.06901629	   -156.96834139	     -3.39511533	    -21.47271878	      0.04118770	     -0.17836593	      1.06642436	     -1.83636538	     -0.00366066	     -0.15987926	     26.79635947	    -60.00909693	      2.68583194	     88.43181971	     -4.62773147	    -85.24214256	    -51.52935154	   -311.47791870	     31.54028866	    590.41178710	     16.75463447	    255.38124131	     -0.00000000	     -0.00000000	    -19.99999998	      0.00000000	     10.00000028	      0.00000000	      4.99999985	      0.00000000	   -119.99999986	     -0.00000000	     11.49999977	     -0.00000000	     -0.03000064	      0.00000000	      0.00000000	     -0.00000000	    -11.02395473	   -283.30019054	      8.38794858	    159.58900010	      5.98951193	     72.83213387	      0.31024112	      0.05139656	      0.24946396	      0.08934956	      0.30991898	      0.07086388	     -0.02152465	      0.09231487	     -0.01977624	      0.14788731	     -0.01552573	      0.43606287	      0.08760924	      0.08152617	      0.11224714	      0.09904656	     -0.00011234	      0.05839382	     -0.02102412	      0.29036560	      0.20949305	      0.09414380	      0.21560051	      0.10427126	      0.23549097	      0.11936964	      0.01377253	      0.08910480	      0.01330182	      0.08342883	     -0.02154446	      0.04363034	     -0.02140701	      0.02324950	      0.35488473	      0.02363074	      0.33467792	      0.11471558	      0.48116264	      0.10265546	      0.14111204	      0.09357809	      0.17696564	      0.06653344	      0.27627576	      0.09343767	      0.24346810	      0.03269736	      0.21839765	      0.02858884	      0.27162036	      0.03807143	      0.20837709	      0.05453941	      0.92218536	      0.05312427	      0.94986002	      0.04832148	      0.61461714	      0.06741151	      0.60804744	      0.07348496	      0.21168148	      0.08110400	     -0.02154446	      0.04646954	     -0.02154446	      0.07924345	     -0.02154446	      0.06066849	     -0.02154446	      0.02207317	     -0.02154446	      0.12238178	     -0.02154446	      0.45556126	     -0.02154446	      0.05828642	     -0.02154446	      0.13391495	     -0.02154446	      0.07307389	     -0.02154446	      0.24301553	     -0.02154446	      0.06638073	     -0.02154446	      0.06554424	     -0.02154446	      0.05770037	     -0.02154446	      0.11895704	     -0.02154446	      0.11276383	     -0.02154446	      0.04385542	     -0.02154446	      0.02477863	     -0.02154446	      0.02332647	     -0.02154446	      0.18252185	     -0.02154446	      0.13945923	     -0.02154446	      0.06773760	     -0.02154446	      0.04190384	     -0.02154446	      0.08593352	     -0.02154446	      0.03561976	     -0.02154446	      0.03422836	     -0.02154446	      0.04262425	     -0.02154446	      0.07211219	     -0.02154446	      0.05030461	     -0.02154446	      0.05155981	     -0.02154446	      0.07464108	     -0.02154446	      0.08888362	     -0.02154446	      0.09641129	      0.01496416	      0.12021314	      0.22754710	      0.13277542	     -0.02154446	      0.08719029	      0.12567836	      0.09780979	     -0.02154446	      0.11487168	      0.12642806	      0.13161108
      0.36508783	     20.00000000	      0.00000000	     -0.00000000	      0.00000000	      0.00000000	      0.00000000	      0.25000000	      0.00000000	     -4.75708057	    184.25856619	     -7.09152397	   -156.59515168	     -3.39815823	    -20.92588956	      0.04116210	     -0.17820679	      1.06616083	     -1.83488232	     -0.00368364	     -0.16023623	     26.78761946	    -61.69940753	      2.69851127	     88.19652765	     -4.64004603	    -86.43085264	    -51.57393406	   -309.73536704	     31.62504631	    590.06535649	     16.79108271	    252.23781802	     -0.00000000	     -0.00000000	    -19.99999998	     -0.00000000	     10.00000028	      0.00000000	      4.99999985	      0.00000000	   -119.99999986	     -0.00000000	     11.49999977	     -0.00000000	     -0.03000064	      0.00000000	      0.00000000	     -0.00000000	    -11.06464477	   -283.56339392	      8.41081651	    158.99342512	      5.99993108	     72.32791336	      0.30970418	      0.05141171	      0.24884209	      0.08935831	      0.30889154	      0.07086822	     -0.02154314	      0.09227583	     -0.01979473	      0.14782336	     -0.01553499	      0.43606418	      0.08741097	      0.08151620	      0.11363755	      0.09903635	     -0.00013083	      0.05838770	     -0.02104260	      0.29031896	      0.20888207	      0.09414829	      0.21496467	      0.10427346	      0.23477138	      0.11936495	      0.01443788	      0.08906739	      0.01397475	      0.08339147	     -0.02156295	      0.04361081	     -0.02142550	      0.02324210	      0.35357984	      0.02363646	      0.33430791	      0.11476353	      0.47980850	      0.10269205	      0.14298658	      0.09356858	      0.17955418	      0.06652116	      0.27717111	      0.09347402	      0.24493655	      0.03269351	      0.21928235	      0.02858511	      0.27296186	      0.03806967	      0.20835269	      0.05448496	      0.92156993	      0.05314847	      0.94944989	      0.04834821	      0.61454273	      0.06738185	      0.60800675	      0.07345257	      0.21164726	      0.08106593	     -0.02156295	      0.04646954	     -0.02156295	      0.07924345	     -0.02156295	      0.06066849	     -0.02156295	      0.02207317	     -0.02156295	      0.12238178	     -0.02156295	      0.45556126	     -0.02156295	      0.05828642	     -0.02156295	      0.13391495	     -0.02156295	      0.07307389	     -0.02156295	      0.24301553	     -0.02156295	      0.06638073	     -0.02156295	      0.06554424	     -0.02156295	      0.05770037	     -0.02156295	      0.11895704	     -0.02156295	      0.11276383	     -0.02156295	      0.04385542	     -0.02156295	      0.02477863	     -0.02156295	      0.02332647	     -0.02156295	      0.18252185	     -0.02156295	      0.13945923	     -0.02156295	      0.06773760	     -0.02156295	      0.04190384	     -0.02156295	      0.08593352	     -0.02156295	      0.03561976	     -0.02156295	      0.03422837	     -0.02156295	      0.04262427	     -0.02156295	      0.07211219	     -0.02156295	      0.05030461	     -0.02156295	      0.05155981	     -0.02156295	      0.07464108	     -0.02156295	      0.08888362	     -0.02156295	      0.09641129	      0.01549063	      0.12021601	      0.22745641	      0.13281631	     -0.02156295	      0.08715332	      0.12536828	      0.09781113	     -0.02156295	      0.11482732	      0.12611562	      0.13160219
